# xmcd CD database file
#
# Track frame offsets:
#	182
#	22385
#	33577
#	54895
#	75330
#	100960
#	123525
#	141875
#	165595
#	188800
#	213177
#
# Disc length: 3094 seconds
#
# Revision: 0
# Processed by: cddbd v1.5.1PL0 Copyright (c) Steve Scherf et al.
# Submitted via: CDex 1.50
#
DISCID=910c140b
DTITLE=Zoot Sims - I Hear a Rhapsody
DYEAR=1992
DGENRE=Jazz
TTITLE0=Blue Skies
TTITLE1=I Hear a Rhapsody
TTITLE2=Ingle Wood
TTITLE3=Ide's Side
TTITLE4=Blues Any Old Time
TTITLE5=Mr Moon
TTITLE6=Snake Eyes
TTITLE7=Lullaby Of The Leaves
TTITLE8=Zootcase
TTITLE9=Boxcars
TTITLE10=The King
EXTD=YEAR: 1992
EXTT0=
EXTT1=
EXTT2=
EXTT3=
EXTT4=
EXTT5=
EXTT6=
EXTT7=
EXTT8=
EXTT9=
EXTT10=
PLAYORDER=
